<?xml version="1.0" encoding="UTF-8" standalone="no"?>
<!DOCTYPE svg PUBLIC "-//W3C//DTD SVG 1.0//EN" "http://www.w3.org/TR/2001/PR-SVG-20010719/DTD/svg10.dtd">
<svg width="34cm" height="41cm" viewBox="198 118 663 803" xmlns="http://www.w3.org/2000/svg" xmlns:xlink="http://www.w3.org/1999/xlink">
  <g>
    <path style="fill: #f8cecc" d="M 560 120 L 800,120 C 833.137,120 860,137.909 860,160 C 860,182.091 833.137,200 800,200 L 560,200 C 526.863,200 500,182.091 500,160 C 500,137.909 526.863,120 560,120z"/>
    <path style="fill: none; fill-opacity:0; stroke-width: 2; stroke: #000000" d="M 560 120 L 800,120 C 833.137,120 860,137.909 860,160 C 860,182.091 833.137,200 800,200 L 560,200 C 526.863,200 500,182.091 500,160 C 500,137.909 526.863,120 560,120"/>
    <text font-size="15.8044" style="fill: #000000;text-anchor:middle;font-family:Consolas;font-style:normal;font-weight:normal" x="680" y="155.061">
      <tspan x="680" y="155.061">RunRoutine("init" routine)</tspan>
      <tspan x="680" y="174.817">herun.c</tspan>
    </text>
  </g>
  <text font-size="12.8" style="fill: #000000;text-anchor:start;font-family:sans-serif;font-style:normal;font-weight:normal" x="680" y="160">
    <tspan x="680" y="160"></tspan>
  </text>
  <g>
    <rect style="fill: #ffe599" x="200" y="120" width="120" height="80"/>
    <rect style="fill: none; fill-opacity:0; stroke-width: 2; stroke: #000000" x="200" y="120" width="120" height="80"/>
    <text font-size="15.8044" style="fill: #000000;text-anchor:middle;font-family:Consolas;font-style:normal;font-weight:normal" x="260" y="154.794">
      <tspan x="260" y="154.794">RunGame()</tspan>
      <tspan x="260" y="174.55">herun.c</tspan>
    </text>
  </g>
  <g>
    <line style="fill: none; fill-opacity:0; stroke-width: 2; stroke: #000000" x1="500.018" y1="160" x2="331.959" y2="160"/>
    <polygon style="fill: #000000" points="331.959,155 321.959,160 331.959,165 "/>
    <polygon style="fill: none; fill-opacity:0; stroke-width: 2; stroke: #000000" points="331.959,155 321.959,160 331.959,165 "/>
  </g>
  <g>
    <rect style="fill: #ffe599" x="320" y="240" width="260" height="80"/>
    <rect style="fill: none; fill-opacity:0; stroke-width: 2; stroke: #000000" x="320" y="240" width="260" height="80"/>
    <text font-size="15.8044" style="fill: #000000;text-anchor:middle;font-family:Consolas;font-style:normal;font-weight:normal" x="450" y="274.794">
      <tspan x="450" y="274.794">RunRoutine("main" routine)</tspan>
      <tspan x="450" y="294.55">herun.c</tspan>
    </text>
  </g>
  <g>
    <polygon style="fill: #d4e1f5" points="349.118,360 580,360 550.882,440 320,440 "/>
    <polygon style="fill: none; fill-opacity:0; stroke-width: 2; stroke: #000000" points="349.118,360 580,360 550.882,440 320,440 "/>
    <text font-size="15.8044" style="fill: #000000;text-anchor:middle;font-family:Consolas;font-style:normal;font-weight:normal" x="450" y="404.672">
      <tspan x="450" y="404.672">Player input</tspan>
    </text>
  </g>
  <g>
    <polygon style="fill: #ffce9f" points="450,718.668 581.252,759.334 450,800 318.748,759.334 "/>
    <polygon style="fill: none; fill-opacity:0; stroke-width: 2; stroke: #000000" points="450,718.668 581.252,759.334 450,800 318.748,759.334 "/>
    <text font-size="15.8044" style="fill: #000000;text-anchor:middle;font-family:Consolas;font-style:normal;font-weight:normal" x="450" y="764.006">
      <tspan x="450" y="764.006">Input is valid?</tspan>
    </text>
  </g>
  <g>
    <line style="fill: none; fill-opacity:0; stroke-width: 2; stroke: #000000" x1="450" y1="320.898" x2="450" y2="348.102"/>
    <polygon style="fill: #000000" points="445,348.102 450,358.102 455,348.102 "/>
    <polygon style="fill: none; fill-opacity:0; stroke-width: 2; stroke: #000000" points="445,348.102 450,358.102 455,348.102 "/>
  </g>
  <polyline style="fill: none; fill-opacity:0; stroke-width: 2; stroke: #000000" points="280,200 280,759.334 318.748,759.334 "/>
  <g>
    <line style="fill: none; fill-opacity:0; stroke-width: 2; stroke: #000000" x1="280" y1="400" x2="323.558" y2="400"/>
    <polygon style="fill: #000000" points="323.558,405 333.558,400 323.558,395 "/>
    <polygon style="fill: none; fill-opacity:0; stroke-width: 2; stroke: #000000" points="323.558,405 333.558,400 323.558,395 "/>
  </g>
  <g>
    <line style="fill: none; fill-opacity:0; stroke-width: 2; stroke: #000000" x1="280" y1="280" x2="309" y2="280"/>
    <polygon style="fill: #000000" points="309,285 319,280 309,275 "/>
    <polygon style="fill: none; fill-opacity:0; stroke-width: 2; stroke: #000000" points="309,285 319,280 309,275 "/>
  </g>
  <g>
    <rect style="fill: #ffe599" x="320" y="480" width="260" height="80"/>
    <rect style="fill: none; fill-opacity:0; stroke-width: 2; stroke: #000000" x="320" y="480" width="260" height="80"/>
    <text font-size="15.8044" style="fill: #000000;text-anchor:middle;font-family:Consolas;font-style:normal;font-weight:normal" x="450" y="514.794">
      <tspan x="450" y="514.794">Parse()</tspan>
      <tspan x="450" y="534.55">heparse.c</tspan>
    </text>
  </g>
  <g>
    <line style="fill: none; fill-opacity:0; stroke-width: 2; stroke: #000000" x1="450" y1="440.977" x2="450" y2="469"/>
    <polygon style="fill: #000000" points="445,469 450,479 455,469 "/>
    <polygon style="fill: none; fill-opacity:0; stroke-width: 2; stroke: #000000" points="445,469 450,479 455,469 "/>
  </g>
  <g>
    <line style="fill: none; fill-opacity:0; stroke-width: 2; stroke: #000000" x1="450" y1="560.898" x2="450" y2="588.102"/>
    <polygon style="fill: #000000" points="445,588.102 450,598.102 455,588.102 "/>
    <polygon style="fill: none; fill-opacity:0; stroke-width: 2; stroke: #000000" points="445,588.102 450,598.102 455,588.102 "/>
  </g>
  <g>
    <rect style="fill: #ffe599" x="320" y="600" width="260" height="80"/>
    <rect style="fill: none; fill-opacity:0; stroke-width: 2; stroke: #000000" x="320" y="600" width="260" height="80"/>
    <text font-size="15.8044" style="fill: #000000;text-anchor:middle;font-family:Consolas;font-style:normal;font-weight:normal" x="450" y="634.794">
      <tspan x="450" y="634.794">MatchCommand()</tspan>
      <tspan x="450" y="654.55">heparse.c</tspan>
    </text>
  </g>
  <g>
    <line style="fill: none; fill-opacity:0; stroke-width: 2; stroke: #000000" x1="450" y1="680.999" x2="450" y2="706.668"/>
    <polygon style="fill: #000000" points="445,706.668 450,716.668 455,706.668 "/>
    <polygon style="fill: none; fill-opacity:0; stroke-width: 2; stroke: #000000" points="445,706.668 450,716.668 455,706.668 "/>
  </g>
  <g>
    <rect style="fill: #ffe599" x="620" y="600" width="240" height="80"/>
    <rect style="fill: none; fill-opacity:0; stroke-width: 2; stroke: #000000" x="620" y="600" width="240" height="80"/>
    <text font-size="15.8044" style="fill: #000000;text-anchor:start;font-family:Consolas;font-style:normal;font-weight:normal" x="629" y="634.794">
      <tspan x="629" y="634.794">MatchWord()   - heparse.c</tspan>
      <tspan x="629" y="654.55">MatchObject() - heparse.c</tspan>
    </text>
  </g>
  <g>
    <line style="fill: none; fill-opacity:0; stroke-width: 2; stroke: #000000" x1="580" y1="620" x2="609" y2="620"/>
    <polygon style="fill: #000000" points="609,625 619,620 609,615 "/>
    <polygon style="fill: none; fill-opacity:0; stroke-width: 2; stroke: #000000" points="609,625 619,620 609,615 "/>
  </g>
  <g>
    <line style="fill: none; fill-opacity:0; stroke-width: 2; stroke: #000000" x1="589.736" y1="660" x2="620" y2="660"/>
    <polygon style="fill: #000000" points="582.236,660 592.236,655 589.736,660 592.236,665 "/>
    <polygon style="fill: none; fill-opacity:0; stroke-width: 2; stroke: #000000" points="582.236,660 592.236,655 589.736,660 592.236,665 "/>
  </g>
  <g>
    <rect style="fill: #ffe599" x="320" y="840" width="260" height="80"/>
    <rect style="fill: none; fill-opacity:0; stroke-width: 2; stroke: #000000" x="320" y="840" width="260" height="80"/>
    <text font-size="15.8044" style="fill: #000000;text-anchor:middle;font-family:Consolas;font-style:normal;font-weight:normal" x="450" y="874.794">
      <tspan x="450" y="874.794">RunRoutine(performaddr)</tspan>
      <tspan x="450" y="894.55">herun.c</tspan>
    </text>
  </g>
  <g>
    <polyline style="fill: none; fill-opacity:0; stroke-width: 2; stroke: #000000" points="320,880 240,880 240,211.98 "/>
    <polygon style="fill: #000000" points="245,211.98 240,201.98 235,211.98 "/>
    <polygon style="fill: none; fill-opacity:0; stroke-width: 2; stroke: #000000" points="245,211.98 240,201.98 235,211.98 "/>
  </g>
  <g>
    <line style="fill: none; fill-opacity:0; stroke-width: 2; stroke: #000000" x1="450" y1="800" x2="450" y2="829"/>
    <polygon style="fill: #000000" points="445,829 450,839 455,829 "/>
    <polygon style="fill: none; fill-opacity:0; stroke-width: 2; stroke: #000000" points="445,829 450,839 455,829 "/>
  </g>
  <text font-size="15.8044" style="fill: #000000;text-anchor:start;font-family:Consolas;font-style:normal;font-weight:normal" x="460" y="820">
    <tspan x="460" y="820">Yes</tspan>
  </text>
  <text font-size="15.8044" style="fill: #000000;text-anchor:start;font-family:Consolas;font-style:normal;font-weight:normal" x="300" y="740">
    <tspan x="300" y="740">No</tspan>
  </text>
  <g>
    <rect style="fill: #ffe599" x="620" y="740" width="240" height="180.044"/>
    <rect style="fill: none; fill-opacity:0; stroke-width: 2; stroke: #000000" x="620" y="740" width="240" height="180.044"/>
    <text font-size="15.8044" style="fill: #000000;text-anchor:start;font-family:Consolas;font-style:normal;font-weight:normal" x="629" y="765.55">
      <tspan x="629" y="765.55">Expression evaluator:</tspan>
      <tspan x="629" y="785.306">heexpr.c</tspan>
      <tspan x="629" y="805.061"></tspan>
      <tspan x="629" y="824.817">SetupExpr()          </tspan>
      <tspan x="629" y="844.572">  |            </tspan>
      <tspan x="629" y="864.328">GetValue() - GetVal()</tspan>
      <tspan x="629" y="884.083">  |           </tspan>
      <tspan x="629" y="903.839">EvalExpr()           </tspan>
    </text>
  </g>
  <g>
    <line style="fill: none; fill-opacity:0; stroke-width: 2; stroke-dasharray: 4; stroke: #000000" x1="580" y1="860" x2="609" y2="860"/>
    <polygon style="fill: #000000" points="609,865 619,860 609,855 "/>
    <polygon style="fill: none; fill-opacity:0; stroke-width: 2; stroke: #000000" points="609,865 619,860 609,855 "/>
  </g>
  <g>
    <line style="fill: none; fill-opacity:0; stroke-width: 2; stroke-dasharray: 4; stroke: #000000" x1="589.736" y1="900" x2="620" y2="900"/>
    <polygon style="fill: #000000" points="582.236,900 592.236,895 589.736,900 592.236,905 "/>
    <polygon style="fill: none; fill-opacity:0; stroke-width: 2; stroke: #000000" points="582.236,900 592.236,895 589.736,900 592.236,905 "/>
  </g>
  <text font-size="15.8044" style="fill: #1e90ff;text-anchor:start;font-family:Consolas;font-style:normal;font-weight:700" x="320" y="234.55">
    <tspan x="320" y="234.55">MAIN EXECUTION LOOP</tspan>
  </text>
  <text font-size="15.8044" style="fill: #ff0000;text-anchor:end;font-family:Consolas;font-style:normal;font-weight:700" x="580" y="234.55">
    <tspan x="580" y="234.55">1.1</tspan>
  </text>
  <text font-size="15.8044" style="fill: #ff0000;text-anchor:end;font-family:Consolas;font-style:normal;font-weight:700" x="580" y="354.55">
    <tspan x="580" y="354.55">1.2</tspan>
  </text>
  <text font-size="15.8044" style="fill: #ff0000;text-anchor:end;font-family:Consolas;font-style:normal;font-weight:700" x="580" y="474.55">
    <tspan x="580" y="474.55">2.1</tspan>
  </text>
  <text font-size="15.8044" style="fill: #ff0000;text-anchor:end;font-family:Consolas;font-style:normal;font-weight:700" x="580" y="594.55">
    <tspan x="580" y="594.55">2.2</tspan>
  </text>
  <text font-size="15.8044" style="fill: #ff0000;text-anchor:end;font-family:Consolas;font-style:normal;font-weight:700" x="860" y="594.55">
    <tspan x="860" y="594.55">2.3</tspan>
  </text>
  <text font-size="15.8044" style="fill: #ff0000;text-anchor:end;font-family:Consolas;font-style:normal;font-weight:700" x="860" y="734.55">
    <tspan x="860" y="734.55">4.1</tspan>
  </text>
  <text font-size="15.8044" style="fill: #ff0000;text-anchor:end;font-family:Consolas;font-style:normal;font-weight:700" x="580" y="834.55">
    <tspan x="580" y="834.55">3.1</tspan>
  </text>
</svg>
