<?xml version="1.0" encoding="UTF-8" standalone="no"?>
<!DOCTYPE svg PUBLIC "-//W3C//DTD SVG 1.0//EN" "http://www.w3.org/TR/2001/PR-SVG-20010719/DTD/svg10.dtd">
<svg width="12cm" height="10cm" viewBox="380 260 240 200" xmlns="http://www.w3.org/2000/svg" xmlns:xlink="http://www.w3.org/1999/xlink">
  <line style="fill: none; fill-opacity:0; stroke-width: 2; stroke: #000000" x1="500.339" y1="279.761" x2="500.112" y2="299.999"/>
  <line style="fill: none; fill-opacity:0; stroke-width: 2; stroke: #000000" x1="580" y1="380" x2="580" y2="400.01"/>
  <line style="fill: none; fill-opacity:0; stroke-width: 2; stroke: #000000" x1="420" y1="380" x2="420" y2="400.01"/>
  <line style="fill: none; fill-opacity:0; stroke-width: 2; stroke: #000000" x1="420" y1="420.01" x2="420" y2="439.99"/>
  <g>
    <rect style="fill: #ffffff" x="460" y="260" width="80.9" height="19.7556"/>
    <rect style="fill: none; fill-opacity:0; stroke-width: 2.35099e-037; stroke: #ffffff" x="460" y="260" width="80.9" height="19.7556"/>
    <text font-size="15.8044" style="fill: #000000;text-anchor:middle;font-family:Courier New;font-style:normal;font-weight:700" x="500.45" y="273.15">
      <tspan x="500.45" y="273.15">nothing</tspan>
    </text>
  </g>
  <g>
    <rect style="fill: #ffffff" x="460" y="300" width="80" height="20"/>
    <rect style="fill: none; fill-opacity:0; stroke-width: 2.35099e-037; stroke: #ffffff" x="460" y="300" width="80" height="20"/>
    <text font-size="15.8044" style="fill: #000000;text-anchor:middle;font-family:Courier New;font-style:normal;font-weight:700" x="500" y="313.272">
      <tspan x="500" y="313.272">Room</tspan>
    </text>
  </g>
  <g>
    <rect style="fill: #ffffff" x="380" y="360" width="80" height="20"/>
    <rect style="fill: none; fill-opacity:0; stroke-width: 2.35099e-037; stroke: #ffffff" x="380" y="360" width="80" height="20"/>
    <text font-size="15.8044" style="fill: #000000;text-anchor:middle;font-family:Courier New;font-style:normal;font-weight:700" x="420" y="373.272">
      <tspan x="420" y="373.272">Table</tspan>
    </text>
  </g>
  <g>
    <rect style="fill: #ffffff" x="460" y="360" width="80" height="20"/>
    <rect style="fill: none; fill-opacity:0; stroke-width: 2.35099e-037; stroke: #ffffff" x="460" y="360" width="80" height="20"/>
    <text font-size="15.8044" style="fill: #000000;text-anchor:middle;font-family:Courier New;font-style:normal;font-weight:700" x="500" y="373.272">
      <tspan x="500" y="373.272">Chair</tspan>
    </text>
  </g>
  <g>
    <rect style="fill: #ffffff" x="540" y="360" width="80" height="20"/>
    <rect style="fill: none; fill-opacity:0; stroke-width: 2.35099e-037; stroke: #ffffff" x="540" y="360" width="80" height="20"/>
    <text font-size="15.8044" style="fill: #000000;text-anchor:middle;font-family:Courier New;font-style:normal;font-weight:700" x="580" y="373.272">
      <tspan x="580" y="373.272">Book</tspan>
    </text>
  </g>
  <g>
    <rect style="fill: #ffffff" x="460" y="400" width="80" height="20"/>
    <rect style="fill: none; fill-opacity:0; stroke-width: 2.35099e-037; stroke: #ffffff" x="460" y="400" width="80" height="20"/>
    <text font-size="15.8044" style="fill: #000000;text-anchor:middle;font-family:Courier New;font-style:normal;font-weight:700" x="500" y="413.272">
      <tspan x="500" y="413.272">Player</tspan>
    </text>
  </g>
  <g>
    <rect style="fill: #ffffff" x="380" y="400" width="80" height="20"/>
    <rect style="fill: none; fill-opacity:0; stroke-width: 2.35099e-037; stroke: #ffffff" x="380" y="400" width="80" height="20"/>
    <text font-size="15.8044" style="fill: #000000;text-anchor:middle;font-family:Courier New;font-style:normal;font-weight:700" x="420" y="413.272">
      <tspan x="420" y="413.272">Bowl</tspan>
    </text>
  </g>
  <g>
    <rect style="fill: #ffffff" x="380" y="440" width="80" height="20"/>
    <rect style="fill: none; fill-opacity:0; stroke-width: 2.35099e-037; stroke: #ffffff" x="380" y="440" width="80" height="20"/>
    <text font-size="15.8044" style="fill: #000000;text-anchor:middle;font-family:Courier New;font-style:normal;font-weight:700" x="420" y="453.272">
      <tspan x="420" y="453.272">Spoon</tspan>
    </text>
  </g>
  <g>
    <rect style="fill: #ffffff" x="540" y="400" width="80" height="20"/>
    <rect style="fill: none; fill-opacity:0; stroke-width: 2.35099e-037; stroke: #ffffff" x="540" y="400" width="80" height="20"/>
    <text font-size="15.8044" style="fill: #000000;text-anchor:middle;font-family:Courier New;font-style:normal;font-weight:700" x="580" y="413.272">
      <tspan x="580" y="413.272">Bookmark</tspan>
    </text>
  </g>
  <polyline style="fill: none; fill-opacity:0; stroke-width: 2; stroke: #000000" points="500,320.01 500,340 420,340 420,359.99 "/>
  <polyline style="fill: none; fill-opacity:0; stroke-width: 2; stroke: #000000" points="500,320.01 500,321.01 500,358.99 500,359.99 "/>
  <polyline style="fill: none; fill-opacity:0; stroke-width: 2; stroke: #000000" points="500,320.01 500,340 580,340 580,359.99 "/>
  <line style="fill: none; fill-opacity:0; stroke-width: 2; stroke: #000000" x1="500" y1="380.01" x2="500" y2="399.99"/>
</svg>
